HIERARCHY
ROOT Root
{
  OFFSET 0.0 0.0 0.0
  CHANNELS 6 Xposition Yposition Zposition Zrotation Yrotation Xrotation
  JOINT Hips
  {
    OFFSET 0.0 100.0 0.0
    CHANNELS 6 Xposition Yposition Zposition Zrotation Yrotation Xrotation
    JOINT Spine1
    {
      OFFSET -0.013727 5.003763 -0.053727
      CHANNELS 3 Zrotation Yrotation Xrotation
      JOINT Spine2
      {
        OFFSET -0.0 7.125301 -0.029825
        CHANNELS 3 Zrotation Yrotation Xrotation
        JOINT Chest
        {
          OFFSET -1e-06 7.550063 -0.815971
          CHANNELS 3 Zrotation Yrotation Xrotation
          JOINT Neck1
          {
            OFFSET -0.181677 26.311295 -0.553348
            CHANNELS 3 Zrotation Yrotation Xrotation
            JOINT Neck2
            {
              OFFSET -3e-06 7.709397 2.302585
              CHANNELS 3 Zrotation Yrotation Xrotation
              JOINT Head
              {
                OFFSET -5e-06 6.128916 1.953709
                CHANNELS 3 Zrotation Yrotation Xrotation
                JOINT HeadEnd
                {
                  OFFSET 0.003598 16.065403 -1.835379
                  CHANNELS 3 Zrotation Yrotation Xrotation
                }
                JOINT Jaw
                {
                  OFFSET 0.002637 0.475592 3.094941
                  CHANNELS 3 Zrotation Yrotation Xrotation
                }
                JOINT LeftEye
                {
                  OFFSET 3.206381 5.380205 7.586883
                  CHANNELS 3 Zrotation Yrotation Xrotation
                }
                JOINT RightEye
                {
                  OFFSET -3.22244 5.361869 7.558234
                  CHANNELS 3 Zrotation Yrotation Xrotation
                }
              }
            }
          }
          JOINT LeftShoulder
          {
            OFFSET 1.621652 23.237164 5.113413
            CHANNELS 3 Zrotation Yrotation Xrotation
            JOINT LeftArm
            {
              OFFSET 14.919846 2e-06 -5.502326
              CHANNELS 3 Zrotation Yrotation Xrotation
              JOINT LeftForeArm
              {
                OFFSET 28.739307 0.0 -0.002588
                CHANNELS 3 Zrotation Yrotation Xrotation
                JOINT LeftHand
                {
                  OFFSET 27.093981 -1e-06 0.002609
                  CHANNELS 3 Zrotation Yrotation Xrotation
                  JOINT LeftHandThumb1
                  {
                    OFFSET 2.276482 -1.392045 3.191413
                    CHANNELS 3 Zrotation Yrotation Xrotation
                    JOINT LeftHandThumb2
                    {
                      OFFSET 4.012836 -1.828127 1.641654
                      CHANNELS 3 Zrotation Yrotation Xrotation
                      JOINT LeftHandThumb3
                      {
                        OFFSET 2.798515 0.0 -3e-06
                        CHANNELS 3 Zrotation Yrotation Xrotation
                        JOINT LeftHandThumbEnd
                        {
                          OFFSET 3.180793 -4e-06 4e-06
                          CHANNELS 3 Zrotation Yrotation Xrotation
                        }
                      }
                    }
                  }
                  JOINT LeftHandIndex1
                  {
                    OFFSET 3.247555 -0.531998 2.296169
                    CHANNELS 3 Zrotation Yrotation Xrotation
                    JOINT LeftHandIndex2
                    {
                      OFFSET 6.364578 0.01206 0.1786
                      CHANNELS 3 Zrotation Yrotation Xrotation
                      JOINT LeftHandIndex3
                      {
                        OFFSET 3.662364 0.0 0.0
                        CHANNELS 3 Zrotation Yrotation Xrotation
                        JOINT LeftHandIndex4
                        {
                          OFFSET 2.329242 4e-06 4e-06
                          CHANNELS 3 Zrotation Yrotation Xrotation
                          JOINT LeftHandIndexEnd
                          {
                            OFFSET 2.759615 -0.180537 -0.113024
                            CHANNELS 3 Zrotation Yrotation Xrotation
                          }
                        }
                      }
                    }
                  }
                  JOINT LeftHandMiddle1
                  {
                    OFFSET 3.163495 0.240981 1.000332
                    CHANNELS 3 Zrotation Yrotation Xrotation
                    JOINT LeftHandMiddle2
                    {
                      OFFSET 6.19078 -0.259278 -1.002548
                      CHANNELS 3 Zrotation Yrotation Xrotation
                      JOINT LeftHandMiddle3
                      {
                        OFFSET 4.35652 -4e-06 -1e-06
                        CHANNELS 3 Zrotation Yrotation Xrotation
                        JOINT LeftHandMiddle4
                        {
                          OFFSET 2.996877 -8e-06 0.0
                          CHANNELS 3 Zrotation Yrotation Xrotation
                          JOINT LeftHandMiddleEnd
                          {
                            OFFSET 2.304287 -0.294569 -0.031741
                            CHANNELS 3 Zrotation Yrotation Xrotation
                          }
                        }
                      }
                    }
                  }
                  JOINT LeftHandRing1
                  {
                    OFFSET 2.882643 -0.053652 -0.322543
                    CHANNELS 3 Zrotation Yrotation Xrotation
                    JOINT LeftHandRing2
                    {
                      OFFSET 5.854541 -0.486202 -1.373841
                      CHANNELS 3 Zrotation Yrotation Xrotation
                      JOINT LeftHandRing3
                      {
                        OFFSET 4.350578 0.0 3e-06
                        CHANNELS 3 Zrotation Yrotation Xrotation
                        JOINT LeftHandRing4
                        {
                          OFFSET 2.651321 7e-06 2e-06
                          CHANNELS 3 Zrotation Yrotation Xrotation
                          JOINT LeftHandRingEnd
                          {
                            OFFSET 1.936105 0.077687 -7.1e-05
                            CHANNELS 3 Zrotation Yrotation Xrotation
                          }
                        }
                      }
                    }
                  }
                  JOINT LeftHandPinky1
                  {
                    OFFSET 2.8655 -0.310005 -1.600378
                    CHANNELS 3 Zrotation Yrotation Xrotation
                    JOINT LeftHandPinky2
                    {
                      OFFSET 5.087849 -1.331141 -1.77123
                      CHANNELS 3 Zrotation Yrotation Xrotation
                      JOINT LeftHandPinky3
                      {
                        OFFSET 3.070974 4e-06 0.0
                        CHANNELS 3 Zrotation Yrotation Xrotation
                        JOINT LeftHandPinky4
                        {
                          OFFSET 1.549672 0.0 1e-06
                          CHANNELS 3 Zrotation Yrotation Xrotation
                          JOINT LeftHandPinkyEnd
                          {
                            OFFSET 1.944893 -0.157802 0.057219
                            CHANNELS 3 Zrotation Yrotation Xrotation
                          }
                        }
                      }
                    }
                  }
                }
              }
            }
          }
          JOINT RightShoulder
          {
            OFFSET -1.380118 23.180309 5.214158
            CHANNELS 3 Zrotation Yrotation Xrotation
            JOINT RightArm
            {
              OFFSET -15.037196 1.2e-05 -5.545604
              CHANNELS 3 Zrotation Yrotation Xrotation
              JOINT RightForeArm
              {
                OFFSET -28.736639 2e-06 -0.002597
                CHANNELS 3 Zrotation Yrotation Xrotation
                JOINT RightHand
                {
                  OFFSET -27.133619 -0.0 0.002613
                  CHANNELS 3 Zrotation Yrotation Xrotation
                  JOINT RightHandThumb1
                  {
                    OFFSET -2.274032 -1.383988 3.163127
                    CHANNELS 3 Zrotation Yrotation Xrotation
                    JOINT RightHandThumb2
                    {
                      OFFSET -4.011429 -1.827466 1.640914
                      CHANNELS 3 Zrotation Yrotation Xrotation
                      JOINT RightHandThumb3
                      {
                        OFFSET -2.794935 -4e-06 -3e-06
                        CHANNELS 3 Zrotation Yrotation Xrotation
                        JOINT RightHandThumbEnd
                        {
                          OFFSET -3.183852 4e-06 1e-06
                          CHANNELS 3 Zrotation Yrotation Xrotation
                        }
                      }
                    }
                  }
                  JOINT RightHandIndex1
                  {
                    OFFSET -3.253266 -0.520057 2.282866
                    CHANNELS 3 Zrotation Yrotation Xrotation
                    JOINT RightHandIndex2
                    {
                      OFFSET -6.341917 0.012471 0.178266
                      CHANNELS 3 Zrotation Yrotation Xrotation
                      JOINT RightHandIndex3
                      {
                        OFFSET -3.654871 -8e-06 -0.0
                        CHANNELS 3 Zrotation Yrotation Xrotation
                        JOINT RightHandIndex4
                        {
                          OFFSET -2.327586 0.0 1e-06
                          CHANNELS 3 Zrotation Yrotation Xrotation
                          JOINT RightHandIndexEnd
                          {
                            OFFSET -2.76179 -0.180656 -0.113078
                            CHANNELS 3 Zrotation Yrotation Xrotation
                          }
                        }
                      }
                    }
                  }
                  JOINT RightHandMiddle1
                  {
                    OFFSET -3.168106 0.246593 1.00103
                    CHANNELS 3 Zrotation Yrotation Xrotation
                    JOINT RightHandMiddle2
                    {
                      OFFSET -6.180828 -0.258836 -1.000895
                      CHANNELS 3 Zrotation Yrotation Xrotation
                      JOINT RightHandMiddle3
                      {
                        OFFSET -4.348901 0.0 -0.0
                        CHANNELS 3 Zrotation Yrotation Xrotation
                        JOINT RightHandMiddle4
                        {
                          OFFSET -3.00024 -4e-06 -2e-06
                          CHANNELS 3 Zrotation Yrotation Xrotation
                          JOINT RightHandMiddleEnd
                          {
                            OFFSET -2.30252 -0.29437 -0.031706
                            CHANNELS 3 Zrotation Yrotation Xrotation
                          }
                        }
                      }
                    }
                  }
                  JOINT RightHandRing1
                  {
                    OFFSET -2.88569 -0.067952 -0.308858
                    CHANNELS 3 Zrotation Yrotation Xrotation
                    JOINT RightHandRing2
                    {
                      OFFSET -5.854198 -0.48613 -1.373731
                      CHANNELS 3 Zrotation Yrotation Xrotation
                      JOINT RightHandRing3
                      {
                        OFFSET -4.33881 -4e-06 -0.0
                        CHANNELS 3 Zrotation Yrotation Xrotation
                        JOINT RightHandRing4
                        {
                          OFFSET -2.654903 -4e-06 4e-06
                          CHANNELS 3 Zrotation Yrotation Xrotation
                          JOINT RightHandRingEnd
                          {
                            OFFSET -1.933568 0.077527 -5.2e-05
                            CHANNELS 3 Zrotation Yrotation Xrotation
                          }
                        }
                      }
                    }
                  }
                  JOINT RightHandPinky1
                  {
                    OFFSET -2.866425 -0.342796 -1.584145
                    CHANNELS 3 Zrotation Yrotation Xrotation
                    JOINT RightHandPinky2
                    {
                      OFFSET -5.091371 -1.332055 -1.772385
                      CHANNELS 3 Zrotation Yrotation Xrotation
                      JOINT RightHandPinky3
                      {
                        OFFSET -3.062664 -4e-06 1e-06
                        CHANNELS 3 Zrotation Yrotation Xrotation
                        JOINT RightHandPinky4
                        {
                          OFFSET -1.546529 4e-06 -2e-06
                          CHANNELS 3 Zrotation Yrotation Xrotation
                          JOINT RightHandPinkyEnd
                          {
                            OFFSET -1.945119 -0.157718 0.057211
                            CHANNELS 3 Zrotation Yrotation Xrotation
                          }
                        }
                      }
                    }
                  }
                }
              }
            }
          }
        }
      }
    }
    JOINT LeftLeg
    {
      OFFSET 10.043214 -8.434526 2.595655
      CHANNELS 3 Zrotation Yrotation Xrotation
      JOINT LeftShin
      {
        OFFSET -1e-06 -43.221752 -0.802913
        CHANNELS 3 Zrotation Yrotation Xrotation
        JOINT LeftFoot
        {
          OFFSET 1e-06 -42.155094 -3.481523
          CHANNELS 3 Zrotation Yrotation Xrotation
          JOINT LeftToeBase
          {
            OFFSET 0.0 -5.059472 13.231529
            CHANNELS 3 Zrotation Yrotation Xrotation
            JOINT LeftToeEnd
            {
              OFFSET -0.009607 -1.647619 6.513017
              CHANNELS 3 Zrotation Yrotation Xrotation
            }
          }
        }
      }
    }
    JOINT RightLeg
    {
      OFFSET -10.047278 -8.29526 2.620317
      CHANNELS 3 Zrotation Yrotation Xrotation
      JOINT RightShin
      {
        OFFSET 1e-06 -43.362206 -0.805556
        CHANNELS 3 Zrotation Yrotation Xrotation
        JOINT RightFoot
        {
          OFFSET 2e-06 -42.117393 -3.478398
          CHANNELS 3 Zrotation Yrotation Xrotation
          JOINT RightToeBase
          {
            OFFSET -0.0 -5.079609 13.284196
            CHANNELS 3 Zrotation Yrotation Xrotation
            JOINT RightToeEnd
            {
              OFFSET 0.009532 -1.634378 6.460591
              CHANNELS 3 Zrotation Yrotation Xrotation
            }
          }
        }
      }
    }
  }
}
MOTION
Frames: 4
Frame Time: 0.03333333333333333
0.0 0.0 0.0 0.0 -0.0 0.0 -7.418647 49.577713 114.456726 2.538054 3.818086 44.111946 2.804504 -0.080444 21.38904 0.989914 -1.227227 2.70807 -0.319222 -3.752009 15.393004 -2.121567 3.345906 -9.655321 0.389256 4.972109 -3.381149 -2.610733 7.040377 -5.686547 7.7e-05 -2.3e-05 5e-06 0.231451 -0.035802 -0.191241 0.914666 -3.726512 -10.632019 -0.462339 3.660242 -10.612387 11.041611 -31.23674 6.106839 15.274301 -39.742882 -52.451397 -0.935657 -23.998764 0.639704 46.611217 -0.928859 -4.056596 -5.882113 9.861292 0.702591 -10.936881 -0.360575 7.156213 -1e-06 8.77483 -2e-06 -15.246465 19.04851 6.673614 -1.844034 2.498507 -2.50728 -10.163607 4.678948 4.621112 -20.97604 0.0 5e-06 -21.226305 2.451701 -3.594001 1e-06 -6e-06 -3e-06 -1.362683 2.240801 -0.746324 -21.334934 0.584913 3.008329 -13.821225 -1e-06 5e-06 -23.887192 -0.249075 -0.839484 -59.571762 2.941075 -2.361969 -0.294026 1.679689 0.833255 -14.218221 0.093216 1.300585 -34.212082 -0.287558 0.967174 -20.033232 0.96454 1.212844 0.0 0.0 0.0 -3.440391 0.788235 0.501656 -15.928201 -3.16731 2.999712 -6.338834 -0.0 2e-06 -18.123466 3.648188 -4.905673 -5e-06 0.0 -3e-06 -13.759416 19.647781 6.200505 30.175117 63.787685 -9.512816 0.575063 19.051826 0.22332 -74.434601 10.417959 -0.053186 2.243542 -5.255038 -3.180158 14.282902 -0.826596 6.952507 -1e-06 -12.690606 0.0 16.825943 -18.374807 2.556638 1.665667 -1.955923 -2.878301 4.727803 -4.170589 4.993925 11.020534 2e-06 -0.0 12.10906 -3.735718 -2.866785 -1e-06 -0.0 -1e-06 1.291986 -1.928549 -1.498089 14.800136 0.567467 3.865611 14.242579 -1.341738 -6.660661 19.631975 0.143923 -0.648245 50.706944 -0.744653 -6.117703 0.353029 -1.51115 -0.031941 20.222807 3.684308 2.316633 18.787287 3e-06 0.0 10.751633 -0.479869 1.397906 -0.0 -0.0 -0.0 3.273808 0.305947 -0.580111 21.486828 11.830376 2.266136 8.16293 2e-06 -0.0 18.399092 -3.798986 -4.940577 3e-06 0.0 -0.0 2.745239 -8.243177 -37.278873 -0.309043 0.178236 88.81736 -17.413813 -9.931284 41.859043 2.132256 -1.537637 3.959613 -0.0 -0.0 1e-06 -3.759638 -2.536766 -72.585327 0.04139 0.178948 127.655853 17.827013 7.262584 37.502266 -1.864507 1.025106 6.882752 0.0 0.0 -1e-06 
0.0 0.0 0.0 0.0 -0.0 0.0 -7.474055 49.327831 116.837105 2.906109 5.636101 43.947594 3.384214 -0.295032 21.216242 1.196659 -1.667722 2.676038 0.603758 -4.140532 15.442764 -1.303514 3.212004 -9.236503 0.147617 4.851588 -3.438477 -2.64032 6.852304 -5.883874 7.7e-05 -2.3e-05 5e-06 0.22096 -0.038889 -0.20117 0.896628 -3.730124 -10.682802 -0.461295 3.655797 -10.657514 11.87974 -30.990803 5.896165 14.31482 -42.287155 -50.776775 -0.872356 -20.695026 0.435962 48.06749 0.074185 -5.074841 -5.882112 9.861292 0.702589 -10.936881 -0.360574 7.156213 -1e-06 8.774831 -1e-06 -15.243258 18.859583 6.523362 -1.844033 2.498506 -2.50728 -10.163607 4.678948 4.621114 -20.97604 0.0 2e-06 -21.226307 2.451702 -3.594004 1e-06 -6e-06 -2e-06 -1.362682 2.2408 -0.746324 -21.33493 0.584913 3.008327 -13.821225 1e-06 3e-06 -23.887186 -0.249075 -0.839485 -59.457809 2.830585 -2.386575 -0.294026 1.679688 0.833255 -14.218219 0.093217 1.300582 -34.212078 -0.287558 0.96717 -20.03323 0.964539 1.212844 -0.0 -1e-06 0.0 -3.440391 0.788234 0.501657 -15.928201 -3.16731 2.999711 -6.338831 -0.0 3e-06 -18.123459 3.648187 -4.905675 -4e-06 1e-06 -3e-06 -12.026465 19.516346 6.774831 33.743305 62.283928 -6.094265 0.619659 20.507732 0.279325 -75.633522 12.30281 0.729185 2.243542 -5.255038 -3.180158 14.282891 -0.826595 6.952504 -1e-06 -12.690603 -1e-06 16.714186 -18.355238 2.570633 1.665665 -1.955922 -2.8783 4.727801 -4.170587 4.993925 11.020528 2e-06 1e-06 12.109055 -3.735716 -2.866784 -1e-06 -0.0 -1e-06 1.291985 -1.92855 -1.498089 14.800127 0.567468 3.86561 14.242571 -1.341738 -6.660657 19.631968 0.143924 -0.648244 50.703121 -0.735504 -6.068187 0.353029 -1.511151 -0.031941 20.22279 3.684308 2.316633 18.787273 3e-06 1e-06 10.751625 -0.479869 1.397906 0.0 -0.0 0.0 3.273808 0.305947 -0.580111 21.486816 11.830373 2.266137 8.16293 1e-06 -1e-06 18.399086 -3.798985 -4.940575 3e-06 0.0 -0.0 3.672136 -9.448841 -34.372475 -0.267394 -0.024182 85.836456 -17.149557 -10.789074 42.049862 2.097037 -1.535072 3.847214 0.0 -0.0 1e-06 -3.864256 -2.799607 -73.800888 0.071137 0.141841 126.466789 18.221878 7.624725 37.033543 -1.787983 0.973872 7.011258 -0.0 1e-06 -2e-06 
0.0 0.0 0.0 0.0 -0.0 0.0 -7.581185 48.897263 119.307014 3.179682 7.110765 44.003345 3.813465 -0.483414 21.039116 1.391597 -1.914959 2.613095 1.428983 -4.224748 15.171289 -0.575792 3.064696 -8.770758 -0.015084 4.649908 -3.477345 -2.774727 6.603706 -6.147393 7.7e-05 -2.2e-05 6e-06 0.200757 -0.037513 -0.204751 0.877943 -3.718447 -10.70197 -0.478475 3.644286 -10.676063 12.471917 -29.813297 5.722554 11.83532 -45.982735 -49.035061 -0.463263 -19.287489 0.208684 51.26931 0.540521 -5.281513 -5.882108 9.861286 0.70259 -10.936873 -0.360573 7.156206 0.0 8.774824 -0.0 -15.226165 18.747543 6.433099 -1.844032 2.498506 -2.507278 -10.163603 4.678945 4.62111 -20.976027 -3e-06 5e-06 -21.226288 2.451698 -3.593999 0.0 -6e-06 -1e-06 -1.362681 2.240798 -0.746323 -21.334921 0.584911 3.008327 -13.821218 -1e-06 4e-06 -23.887178 -0.249076 -0.839483 -59.425659 2.778326 -2.500603 -0.294024 1.679687 0.833256 -14.21821 0.093216 1.300582 -34.212051 -0.287561 0.967173 -20.033218 0.964538 1.212845 -0.0 -0.0 2e-06 -3.440388 0.788233 0.501655 -15.928187 -3.16731 2.99971 -6.338827 -1e-06 2e-06 -18.123453 3.648183 -4.905672 -5e-06 1e-06 -3e-06 -10.378753 19.468523 7.371306 37.217236 60.047218 -2.825342 0.720054 22.338749 0.411489 -77.336746 14.10172 1.382897 2.243544 -5.25504 -3.180161 14.2829 -0.826595 6.952505 -2e-06 -12.690609 2e-06 16.546034 -18.360094 2.61019 1.665668 -1.955923 -2.878301 4.727801 -4.170589 4.993927 11.020535 3e-06 -2e-06 12.10906 -3.735718 -2.866787 -1e-06 0.0 -1e-06 1.291987 -1.928552 -1.498091 14.800136 0.567468 3.865609 14.242582 -1.341737 -6.660664 19.631979 0.143927 -0.648246 50.801468 -0.727734 -6.015081 0.353029 -1.511151 -0.031939 20.222803 3.684312 2.316631 18.787287 5e-06 -2e-06 10.751634 -0.479868 1.397906 -1e-06 -0.0 -0.0 3.27381 0.305947 -0.580111 21.48683 11.830383 2.266133 8.16293 2e-06 -2e-06 18.399096 -3.798985 -4.940581 3e-06 0.0 -0.0 4.483116 -10.242754 -31.486647 -0.188584 -0.301071 82.711037 -17.034246 -11.55708 42.217777 2.033795 -1.528794 3.899577 -0.0 0.0 1e-06 -3.695165 -2.947224 -73.477516 0.128188 0.080821 124.901237 18.442148 7.873326 35.983974 -1.716383 0.927667 6.456365 -0.0 1e-06 -2e-06 
0.0 0.0 0.0 0.0 -0.0 0.0 -7.667319 48.358398 121.778397 3.175605 8.126991 44.384357 4.150962 -0.667895 20.829441 1.390364 -1.918054 2.381014 2.338099 -4.019081 14.853208 -0.37868 3.067521 -8.578283 -0.190805 4.429374 -3.554984 -2.906202 6.079224 -6.732127 7.7e-05 -2.3e-05 6e-06 0.162609 -0.010542 -0.214498 0.840078 -3.667941 -10.707335 -0.51788 3.654136 -10.70176 12.730521 -28.211538 6.052567 9.108435 -49.951023 -47.782127 0.088957 -18.860872 0.046491 55.292168 0.341561 -5.366142 -5.88211 9.861287 0.702589 -10.936875 -0.360575 7.15621 -0.0 8.774826 -0.0 -15.345873 18.979195 6.612734 -1.844033 2.498505 -2.507279 -10.163604 4.678946 4.621112 -20.97603 -3e-06 4e-06 -21.226297 2.451699 -3.594002 -0.0 -5e-06 -2e-06 -1.362682 2.240798 -0.746325 -21.334923 0.58491 3.008326 -13.82122 -1e-06 4e-06 -23.887178 -0.249077 -0.839482 -59.585697 2.959603 -2.497948 -0.294025 1.679688 0.833257 -14.218214 0.093214 1.300583 -34.212055 -0.287561 0.967172 -20.03322 0.964538 1.212846 0.0 -0.0 1e-06 -3.44039 0.788233 0.501657 -15.928192 -3.16731 2.99971 -6.33883 -0.0 1e-06 -18.123455 3.648184 -4.905671 -4e-06 1e-06 -4e-06 -9.057245 19.639067 8.069681 39.95134 57.470905 -1.053853 1.009617 24.39106 0.650671 -79.234978 16.47336 2.518789 2.243543 -5.255038 -3.180159 14.282896 -0.826595 6.952507 -1e-06 -12.690605 -2e-06 16.520317 -18.478182 2.55654 1.665667 -1.955923 -2.8783 4.727803 -4.170588 4.993925 11.020531 2e-06 -0.0 12.109058 -3.735718 -2.866785 -1e-06 -0.0 -2e-06 1.291986 -1.92855 -1.49809 14.800132 0.567469 3.865609 14.242579 -1.341737 -6.660659 19.631973 0.143924 -0.648245 50.981503 -0.64379 -6.162396 0.353029 -1.511151 -0.031939 20.222801 3.684309 2.316632 18.787283 3e-06 -2e-06 10.751633 -0.479869 1.397906 -0.0 -0.0 0.0 3.273809 0.305947 -0.580112 21.486824 11.830376 2.266137 8.16293 2e-06 -1e-06 18.399088 -3.798986 -4.940577 3e-06 0.0 -0.0 5.102399 -10.349841 -28.906624 -0.139855 -0.55086 79.695847 -17.267553 -11.349018 41.959648 1.923749 -1.546825 3.766507 -0.0 1e-06 1e-06 -3.191496 -2.928763 -72.328423 0.002203 0.097429 123.896614 18.182419 7.518341 34.890377 -1.787094 0.8287 5.882533 -0.0 0.0 -2e-06 
